<svg width="20" height="20" viewBox="0 0 20 20" fill="none" xmlns="http://www.w3.org/2000/svg">
<path d="M6.54109 6.46605L10.0001 9.4309L13.4591 6.46605L12.3744 5.20062L10.8334 6.52148V2.5H9.16675V6.52148L7.62574 5.20062L6.54109 6.46605Z" fill="#D42222"/>
<path fill-rule="evenodd" clip-rule="evenodd" d="M4.756 6.91074C5.08144 7.23618 5.08144 7.76382 4.756 8.08926L3.67859 9.16667L4.96898 9.16666C5.16332 9.16663 5.36145 9.16659 5.53306 9.18259C5.72995 9.20095 5.95008 9.24411 6.17386 9.36388C6.39763 9.48364 6.55566 9.64285 6.68015 9.7965C6.78865 9.9304 6.89852 10.0953 7.00629 10.257L7.69868 11.2956C7.82823 11.4899 7.89475 11.5882 7.94828 11.6543L7.95095 11.6575L7.95517 11.6579C8.03983 11.6658 8.1585 11.6667 8.39206 11.6667H11.6081C11.8417 11.6667 11.9603 11.6658 12.045 11.6579L12.0492 11.6575L12.0519 11.6543C12.1054 11.5882 12.1719 11.4899 12.3015 11.2956L12.9939 10.257C13.1016 10.0953 13.2115 9.9304 13.32 9.7965C13.4445 9.64285 13.6025 9.48364 13.8263 9.36388C14.0501 9.24411 14.2702 9.20095 14.4671 9.18259C14.6387 9.16659 14.8368 9.16663 15.0312 9.16666L16.3216 9.16667L15.2442 8.08926C14.9187 7.76382 14.9187 7.23618 15.2442 6.91074C15.5696 6.58531 16.0972 6.58531 16.4227 6.91074L17.8453 8.33333C18.1578 8.64589 18.3334 9.06982 18.3334 9.51184V14.1667C18.3334 15.5474 17.2141 16.6667 15.8334 16.6667H4.16675C2.78604 16.6667 1.66675 15.5474 1.66675 14.1667V9.51184C1.66675 9.06982 1.84234 8.64589 2.1549 8.33333L3.57749 6.91074C3.90293 6.58531 4.43057 6.58531 4.756 6.91074ZM3.33341 14.1667V10.8333H4.94144C5.17499 10.8333 5.29366 10.8342 5.37832 10.8421L5.38254 10.8425L5.38522 10.8457C5.43875 10.9118 5.50527 11.0101 5.63482 11.2044L6.3272 12.243C6.43498 12.4047 6.54485 12.5696 6.65335 12.7035C6.77784 12.8571 6.93586 13.0164 7.15964 13.1361C7.38341 13.2559 7.60355 13.2991 7.80044 13.3174C7.97204 13.3334 8.17017 13.3334 8.36452 13.3333H11.6356C11.83 13.3334 12.0281 13.3334 12.1997 13.3174C12.3966 13.2991 12.6167 13.2559 12.8405 13.1361C13.0643 13.0164 13.2223 12.8571 13.3468 12.7035C13.4553 12.5696 13.5652 12.4047 13.673 12.243L14.3653 11.2044C14.4949 11.0101 14.5614 10.9118 14.6149 10.8457L14.6176 10.8425L14.6218 10.8421C14.7065 10.8342 14.8252 10.8333 15.0587 10.8333H16.6667V14.1667C16.6667 14.6269 16.2937 15 15.8334 15H4.16675C3.70651 15 3.33341 14.6269 3.33341 14.1667Z" fill="#D42222"/>
</svg>
