<svg width="24" height="24" viewBox="0 0 24 24" fill="none" xmlns="http://www.w3.org/2000/svg">
<path fill-rule="evenodd" clip-rule="evenodd" d="M8.51783 3.99989L8.65665 4.00004H15.3429L15.4818 3.99989C16.1606 3.99885 16.763 3.99793 17.3194 4.2284C17.8758 4.45887 18.3012 4.88551 18.7804 5.36624L18.8785 5.4645L19.5353 6.12136L19.6336 6.21942C20.1143 6.69867 20.541 7.12401 20.7714 7.68041C21.0019 8.23682 21.001 8.83926 20.9999 9.51807L20.9998 9.65689L20.9998 16.0658C20.9998 16.9523 20.9999 17.7162 20.9177 18.3278C20.8295 18.9833 20.6308 19.6117 20.1211 20.1214C19.6115 20.631 18.9831 20.8298 18.3276 20.9179C17.7159 21.0001 16.9521 21.0001 16.0656 21H7.93399C7.04749 21.0001 6.28367 21.0001 5.672 20.9179C5.01648 20.8298 4.38813 20.631 3.87847 20.1214C3.36881 19.6117 3.17006 18.9833 3.08193 18.3278C2.9997 17.7162 2.99974 16.9524 2.99979 16.0659L2.99979 9.65689L2.99965 9.51807C2.99861 8.83926 2.99768 8.23682 3.22815 7.68041C3.45862 7.12401 3.88527 6.69867 4.366 6.21942L4.46426 6.12136L5.12111 5.4645L5.21917 5.36624C5.69842 4.88551 6.12376 4.45887 6.68017 4.2284C7.23657 3.99793 7.83902 3.99885 8.51783 3.99989ZM18.9237 8.44578C18.9636 8.54219 18.9845 8.6526 18.9937 9.00004H5.00584C5.01507 8.6526 5.03598 8.54219 5.07591 8.44578C5.13433 8.30474 5.24272 8.17133 5.87847 7.53557L6.53533 6.87872C7.17108 6.24296 7.3045 6.13458 7.44554 6.07616C7.58657 6.01774 7.75755 6.00004 8.65665 6.00004H15.3429C16.242 6.00004 16.413 6.01774 16.554 6.07616C16.6951 6.13458 16.8285 6.24296 17.4643 6.87872L18.1211 7.53557C18.7569 8.17133 18.8653 8.30474 18.9237 8.44578ZM8.66385 11H4.99979V16C4.99979 16.9711 5.00192 17.5988 5.0641 18.0613C5.12241 18.4951 5.21656 18.631 5.29269 18.7071C5.36881 18.7833 5.50476 18.8774 5.9385 18.9357C6.401 18.9979 7.02871 19 7.99979 19H15.9998C16.9709 19 17.5986 18.9979 18.0611 18.9357C18.4948 18.8774 18.6308 18.7833 18.7069 18.7071C18.783 18.631 18.8772 18.4951 18.9355 18.0613C18.9977 17.5988 18.9998 16.9711 18.9998 16V11H15.3305V13.6667C15.3305 14.4315 15.3305 14.8139 15.2316 15.0195C15.0108 15.4783 14.4805 15.6979 14 15.5296C13.7847 15.4542 13.5143 15.1838 12.9735 14.643C12.723 14.3925 12.5978 14.2673 12.4646 14.1969C12.1722 14.0423 11.8222 14.0423 11.5298 14.1969C11.3966 14.2673 11.2714 14.3925 11.0209 14.643C10.4801 15.1838 10.2097 15.4542 9.9944 15.5296C9.51384 15.6979 8.98356 15.4783 8.76276 15.0195C8.66385 14.8139 8.66385 14.4315 8.66385 13.6667V11Z" fill="#3E423C"/>
</svg>
